PathFileType	4	(X/Y/Z)	example_trial.trc
DataRate	CameraRate	NumFrames	NumMarkers	Units	OrigDataRate	OrigDataStartFrame	OrigNumFrames
100	100	4	20	mm	100	1	2322
Frame#	Time	Can1			Can2			Can3			ElbowLE			ElbowME			Elbow3			Elbow4			Elbow5			Elbow6			ForearmRS			ForearmUL			Forearm3			Forearm4			HandRS			HandUL			Hand3			Hand4			Hand5			Hand6			Hand7			
		X1	Y1	Z1	X2	Y2	Z2	X3	Y3	Z3	X4	Y4	Z4	X5	Y5	Z5	X6	Y6	Z6	X7	Y7	Z7	X8	Y8	Z8	X9	Y9	Z9	X10	Y10	Z10	X11	Y11	Z11	X12	Y12	Z12	X13	Y13	Z13	X14	Y14	Z14	X15	Y15	Z15	X16	Y16	Z16	X17	Y17	Z17	X18	Y18	Z18	X19	Y19	Z19	X20	Y20	Z20	

1	0.0	473.1020663757404	93.10236956915422	30.58798171454628	450.7508973197803	102.39948652133435	37.84588177420059	471.44148705367246	57.905362912398985	34.629177182753565	5.329070518200751e-15	-69.17288786677	-4.163336342344337e-15	5.329070518200751e-15	90.55252084538544	-4.107825191113079e-15	99.39165870761043	-34.46254339825838	-29.5138902684025	97.00181047683228	33.02776649663007	-31.447938516175242	98.81124501899859	34.53715441321394	25.149825478249305	100.55196693484409	-33.10237751158566	26.25984386701007	193.53826474294516	1.054002650542504	41.965554552838285	191.49747405850198	-0.33048425705864304	-55.67983631264738	122.14217119282647	-34.40119190131932	-29.786232172800855	120.16660854683724	32.80726111080969	-31.9109746140086	330.1151367974657	5.167290779941361	21.380754673132294	325.52655415336886	3.0369532423917995	-47.81740297677306	413.0593569563899	-20.79823397992348	-43.722748289159604	446.889945884368	-11.163481699495083	-48.32491941252373	436.83134244010387	-15.14190336340182	-13.143246514547588	450.8511698221963	-10.07068058787474	10.046659418460585	417.50781321911677	-17.285754391087995	9.439140865038567	
2	0.01	472.85095159610415	93.61768545406171	30.47592671994962	450.480439479682	102.87087562364971	37.75054405753399	471.2831408454303	58.42707415636171	34.53072385145862	0.03005338978293981	-69.87737631485949	0.381378657275227	-1.8304561333206122	89.97032378406814	-0.671363036232541	99.39054358178231	-34.44817862866377	-29.509669958080487	97.00310418798955	33.01452400041389	-31.479798649974736	98.81448861939617	34.55361496901792	25.14724519510544	100.5496174496863	-33.07672990388761	26.265666455212624	193.54183409162732	1.07286151741258	41.96164700382126	191.61823615432013	-0.10941809590559615	-55.66653461014291	122.13102714090915	-34.38913057939493	-29.79291806028692	120.16800430476371	32.84207602676899	-31.900303522494077	330.10811559419636	5.273464840106442	21.362907645395737	325.2459628941877	2.941524735347297	-47.90612692882072	413.09205158577277	-20.449490912250496	-43.79426115009979	446.4582275392005	-10.235644185903535	-48.57645290868634	436.82292329010824	-14.73140893308571	-13.21490607697929	450.2351517024551	-9.928814150719663	10.056007436503833	417.479173402873	-16.807274564644104	9.245531523276533	
3	0.02	472.5837749603275	94.16590375630457	30.392949871096306	450.18955722980115	103.3362737330394	37.66891827538932	471.11147893440204	58.95867542051016	34.435816490643454	-0.23450321802338703	-69.9077422831812	0.544577689375914	-0.3578338593227306	90.63483903218209	0.7296249181002152	99.39340378573385	-34.420406781971515	-29.502255149153868	96.98771103815213	33.063617271364784	-31.453638249978333	98.81802573284828	34.578133558651146	25.15365650400404	100.5504808541682	-33.05951411858712	26.26995167023233	193.53996680169993	1.096660542429973	41.95532192172251	190.7960814928297	-1.2394437594827998	-55.449560588923866	122.13720616199373	-34.36942429768923	-29.777006002416407	120.15754613257937	32.86199806323828	-31.89821794884635	330.10576350364437	5.396636660448536	21.365275492063425	325.41822018243835	3.1414912138498394	-47.940761183351654	413.1273357235334	-20.100996375684307	-43.82231133442511	446.75333044477156	-10.515897082173538	-48.255877054900026	436.87227951230733	-14.302696597906042	-13.26429454299636	451.27246016569916	-9.045854785759499	10.224399217796979	417.5356763889935	-16.442342961140806	9.193707315664717	
4	0.03	472.2998193051339	94.68289749972463	30.332459535576987	449.902360448417	103.79889705020344	37.601905074647966	470.94031782535046	59.4811899647641	34.37695202523967	-0.12146441118504114	-69.930401001524	0.5264747268783587	-1.263853928123262	90.40717603595033	0.8278723691656221	99.39860464528115	-34.420032286108814	-29.503158643662477	97.00171170935441	33.06515510720197	-31.457199132166373	98.8183717224676	34.568916094289406	25.152711511911907	100.56058987633989	-33.05331185603329	26.266603431207464	193.5508843175044	1.1043741523335893	41.95966681544281	191.49199818192966	-0.34047543796683577	-55.69201928607212	122.13773979524356	-34.363952231243694	-29.779896930818154	120.16974969975963	32.84147294617673	-31.919363519423165	330.09654235701066	5.505640161982583	21.33619101060112	325.86359868031656	3.9579446525459243	-47.99858328099938	413.1659955902104	-19.7455532523856	-43.86635207147043	446.4779420452785	-10.158762160049605	-48.157561171834914	436.9146258702679	-13.904662223948922	-13.301883907478722	451.3177560308495	-8.37662901066765	10.017663564578093	417.5810793740799	-16.0606403747496	9.156545897022049	
